<?xml version="1.0" standalone="no"?>
<!DOCTYPE svg PUBLIC "-//W3C//DTD SVG 20010904//EN"
 "http://www.w3.org/TR/2001/REC-SVG-20010904/DTD/svg10.dtd">
<svg version="1.0" xmlns="http://www.w3.org/2000/svg"
 width="460.000000pt" height="460.000000pt" viewBox="0 0 460.000000 460.000000"
 preserveAspectRatio="xMidYMid meet">
<metadata>
Created by potrace 1.14, written by Peter Selinger 2001-2017
</metadata>
<g transform="translate(0.000000,460.000000) scale(0.100000,-0.100000)"
fill="#000000" stroke="none">
<path d="M0 3035 c0 -1245 3 -1565 13 -1565 27 0 87 22 87 31 0 6 4 8 10 4 16
-10 56 5 57 23 1 9 6 73 12 142 10 127 23 198 38 209 11 8 93 117 93 123 0 4
14 36 30 74 l31 67 23 -22 c30 -28 116 -55 130 -41 7 7 0 10 -19 10 -32 1 -80
23 -80 37 0 4 -10 18 -22 30 l-22 22 21 62 c11 33 24 56 27 50 4 -6 8 11 8 37
0 26 8 75 18 107 29 98 34 105 31 40 -4 -80 6 -119 42 -159 24 -28 32 -32 36
-19 4 9 4 18 1 21 -3 3 -5 0 -5 -8 0 -10 -3 -10 -15 0 -9 7 -14 19 -11 27 3 8
2 11 -4 8 -16 -10 -30 32 -30 91 0 46 2 54 13 45 8 -6 18 -7 22 -3 5 4 5 2 2
-4 -4 -7 -1 -27 7 -44 9 -22 15 -28 19 -19 3 8 6 -6 7 -31 2 -46 4 -46 14 3 6
23 9 26 26 17 26 -14 50 -12 25 2 -49 28 -51 37 -30 128 5 21 4 22 -4 5 -6
-14 -9 10 -8 77 1 66 -2 101 -10 109 -7 7 -13 23 -13 36 0 13 -4 23 -8 23 -5
0 -17 17 -26 39 -22 47 -19 138 5 162 17 17 53 34 45 20 -8 -13 41 -20 53 -8
8 8 11 8 11 0 0 -16 76 25 111 60 31 31 63 39 36 9 -10 -10 -14 -22 -10 -27 5
-4 3 -6 -2 -3 -6 4 -24 -5 -40 -19 -23 -19 -24 -22 -7 -13 13 6 26 10 28 7 3
-2 -7 -28 -22 -57 -23 -46 -31 -67 -33 -92 -1 -5 -20 -8 -43 -9 l-43 -1 33
-11 c24 -7 31 -14 26 -26 -3 -9 -8 -38 -10 -66 -1 -27 0 -40 2 -27 6 27 24 29
24 3 0 -44 37 -104 65 -106 6 -1 29 -7 53 -13 56 -17 80 -9 27 8 -69 23 -94
68 -76 136 9 35 17 43 68 66 l58 27 3 -57 c2 -31 8 -61 14 -67 7 -7 9 5 5 41
-3 27 -2 56 2 62 4 7 7 -18 7 -55 -1 -69 16 -129 49 -168 16 -20 16 -19 9 5
-6 24 -6 24 13 8 23 -21 38 -24 26 -5 -16 26 -12 37 10 26 19 -10 18 -7 -5 18
-42 44 -34 49 14 9 25 -22 52 -36 68 -36 l27 0 -33 35 c-37 39 -47 91 -42 208
2 48 0 67 -9 67 -8 0 -13 14 -13 36 0 32 4 37 47 56 25 11 57 21 70 21 26 0
83 -48 83 -70 0 -9 16 -13 55 -13 60 0 66 -7 36 -49 -30 -42 -67 -131 -87
-212 -13 -50 -29 -86 -51 -112 -39 -48 -52 -107 -29 -142 9 -13 16 -31 16 -39
0 -8 8 -14 19 -13 11 0 19 4 18 7 -1 3 4 14 10 25 5 11 16 57 23 103 14 82 25
97 50 67 7 -8 18 -15 24 -15 11 1 -26 36 -45 42 -13 4 24 146 54 203 14 28 14
26 11 -46 -3 -56 -1 -66 5 -40 10 39 51 81 98 100 17 7 41 24 54 37 19 20 21
29 13 52 -9 25 -14 27 -61 27 l-52 0 17 26 c75 116 70 112 115 105 23 -3 52
-9 64 -12 18 -5 25 -1 33 22 14 35 4 81 -19 94 -13 6 -16 17 -13 38 2 18 -2
35 -12 45 -15 15 -14 19 12 49 56 66 72 95 72 136 0 67 -54 96 -123 67 -15 -6
-15 -5 2 16 20 24 76 93 140 172 115 144 258 291 338 348 69 49 151 71 198 53
24 -10 72 -84 109 -174 61 -143 97 -359 119 -712 6 -88 -12 -115 -121 -180
-38 -22 -41 -26 -19 -25 14 1 23 5 20 10 -2 4 2 7 9 7 7 0 36 12 63 26 l50 25
-40 -35 c-22 -20 -58 -42 -80 -50 -56 -20 -18 -20 44 1 35 11 63 29 87 56 20
21 36 37 37 35 2 -1 7 -16 13 -33 7 -16 15 -39 19 -49 7 -15 5 -17 -6 -11 -10
6 -10 3 2 -11 19 -22 41 -103 32 -117 -3 -6 -1 -7 5 -3 47 29 -39 -310 -95
-378 -14 -17 -22 -37 -20 -48 3 -10 1 -15 -4 -12 -5 3 -12 -2 -15 -10 -3 -8
-26 -25 -50 -36 -58 -28 -65 -41 -12 -23 22 8 47 12 54 9 8 -3 13 -1 11 5 -1
6 7 16 18 22 11 7 22 15 25 18 3 3 13 8 22 12 27 10 11 -18 -26 -47 -46 -35
-107 -68 -114 -61 -3 3 1 5 8 5 7 0 10 3 7 6 -4 4 -12 2 -19 -4 -12 -9 -86
-52 -91 -52 -1 0 -1 64 1 143 3 140 3 143 -25 195 -17 32 -80 106 -164 190
-106 108 -142 151 -168 204 -70 143 -59 216 39 266 23 11 22 12 -15 6 -53 -8
-101 -38 -113 -72 -33 -98 48 -269 187 -388 132 -115 194 -181 222 -236 39
-77 37 -97 -3 -28 -47 81 -120 147 -249 222 -63 38 -125 78 -139 90 -54 49
-134 145 -147 177 -8 18 -17 31 -19 28 -3 -3 -1 -14 5 -25 14 -26 14 -131 0
-225 -9 -61 -8 -88 5 -153 30 -145 96 -241 261 -381 139 -118 140 -120 120
-166 -17 -41 -19 -95 -5 -117 7 -11 10 -5 11 25 l1 40 9 -41 c6 -23 19 -50 29
-59 20 -18 20 -18 5 12 -17 35 -5 90 17 77 6 -4 8 -3 4 4 -3 6 -2 13 2 16 11
7 34 -42 27 -55 -4 -5 -2 -16 3 -25 9 -16 21 10 52 109 6 21 18 37 26 37 9 0
13 4 10 9 -8 12 31 17 84 10 25 -3 35 -7 23 -7 -37 -3 -26 -17 12 -18 22 0 31
3 23 8 -7 4 19 8 61 8 64 0 72 -2 61 -15 -7 -8 -20 -15 -29 -15 -14 0 -14 -2
-1 -10 12 -8 12 -11 -1 -27 -31 -37 -56 -124 -27 -95 8 8 46 12 103 12 137 1
192 33 225 134 19 60 51 128 57 123 2 -3 0 -14 -6 -25 -6 -12 -11 -30 -11 -42
0 -11 -14 -49 -31 -83 -45 -90 -92 -127 -162 -127 l-32 -1 25 -14 c33 -19 100
-19 127 0 12 8 29 35 39 60 9 25 19 44 21 41 2 -2 -3 -46 -12 -98 -10 -51 -18
-97 -19 -103 -2 -18 -18 -23 -50 -14 -50 14 -76 10 -32 -6 57 -20 60 -28 27
-62 -16 -17 -27 -34 -24 -36 3 -3 -2 -4 -11 -3 -9 1 -29 15 -46 31 -35 33 -39
26 -9 -16 11 -16 18 -33 14 -39 -5 -8 -48 -22 -147 -48 -20 -5 -40 -6 -45 -1
-8 8 -156 29 -198 29 -40 -1 -56 -25 -68 -104 -13 -85 -25 -99 -93 -110 l-41
-7 -22 52 c-26 64 -77 133 -111 150 -18 9 -96 13 -270 15 l-245 2 -22 53 c-12
30 -23 71 -23 92 0 71 -32 106 -97 107 -30 0 -50 -7 -69 -24 -27 -23 -28 -24
-11 -50 10 -14 55 -64 101 -110 l84 -84 -37 -6 c-68 -11 -248 -54 -286 -68
-16 -6 -61 -13 -100 -15 -138 -6 -293 -25 -450 -54 -237 -44 -248 -46 -432
-99 l-73 -21 0 -714 0 -715 1181 0 1181 0 -6 33 c-6 30 -12 86 -20 200 -1 26
1 44 5 40 4 -4 31 -53 59 -108 29 -55 61 -115 72 -132 l20 -33 1054 0 1054 0
0 2300 0 2300 -2300 0 -2300 0 0 -1565z m1631 431 c10 -37 -8 -82 -49 -120
l-31 -29 -11 29 c-14 35 -6 96 17 130 23 35 64 30 74 -10z m-126 -58 c1 -29 5
-72 9 -95 8 -40 7 -42 -23 -57 -18 -10 -31 -24 -31 -35 0 -13 -10 -20 -32 -25
-17 -3 -40 -14 -50 -23 -23 -21 -23 -8 1 25 19 28 74 149 86 192 6 22 32 70
38 70 1 0 2 -24 2 -52z m-120 -125 c-16 -27 -16 -27 -11 -3 3 14 9 43 14 65
l7 40 3 -37 c2 -21 -4 -49 -13 -65z m-598 45 c-3 -7 -5 -2 -5 12 0 14 2 19 5
13 2 -7 2 -19 0 -25z m-73 -70 c-12 -43 -54 -126 -69 -138 -8 -7 -15 -18 -15
-24 -1 -12 -35 -56 -44 -56 -3 0 5 16 19 35 13 20 42 74 65 120 41 83 58 108
44 63z m176 -29 c0 -30 -62 -139 -79 -139 -12 0 -12 3 1 18 18 20 58 109 58
128 0 8 5 14 10 14 6 0 10 -10 10 -21z m-126 -41 c-36 -70 -121 -168 -146
-168 -7 0 10 22 37 48 28 26 57 59 65 73 33 56 55 88 58 84 2 -2 -4 -18 -14
-37z m-54 -28 c-6 -11 -13 -20 -16 -20 -2 0 0 9 6 20 6 11 13 20 16 20 2 0 0
-9 -6 -20z m185 -29 c-1 -40 -20 -75 -36 -65 -5 3 -6 -2 -3 -10 4 -10 -13 -36
-47 -71 -28 -30 -50 -58 -46 -61 3 -3 10 4 16 15 12 21 56 51 50 33 -2 -5 -28
-36 -58 -68 -30 -33 -49 -49 -43 -37 7 12 17 25 22 28 6 3 10 11 10 16 0 6 -4
7 -10 4 -15 -9 -12 1 10 46 12 22 18 45 14 51 -4 6 -3 8 3 5 6 -4 22 8 36 26
13 17 34 43 46 56 25 29 27 39 4 20 -9 -8 -7 0 7 19 13 17 24 32 25 32 1 0 1
-18 0 -39z m501 -14 c-23 -23 -47 -61 -54 -84 -12 -40 -13 -40 -57 -39 -25 0
-45 2 -45 3 0 12 95 122 98 114 2 -6 20 2 40 19 54 44 65 36 18 -13z m-723 -2
c-3 -9 -8 -14 -10 -11 -3 3 -2 9 2 15 9 16 15 13 8 -4z m2622 -15 c42 -20 46
-25 40 -49 -16 -68 -88 -193 -148 -259 -36 -38 -83 -96 -105 -129 -23 -33 -55
-75 -73 -92 -17 -17 -37 -51 -44 -74 -7 -23 -24 -62 -38 -87 -21 -38 -31 -46
-64 -52 -21 -3 -50 -11 -64 -16 l-26 -11 15 52 c8 29 25 62 37 74 33 34 46 89
35 153 -5 30 -14 95 -20 143 -12 98 -54 243 -72 249 -27 9 200 104 292 122 60
11 189 -2 235 -24z m-1875 -54 c-37 -54 -54 -68 -40 -31 15 39 31 68 49 89 31
35 24 -9 -9 -58z m1139 19 c0 -5 -4 -3 -9 5 -5 8 -9 22 -9 30 0 16 17 -16 18
-35z m31 -86 c0 -19 -1 -19 -16 -5 -8 9 -12 20 -9 26 9 15 25 2 25 -21z
m-1648 -46 c-6 -9 -18 -18 -28 -19 -16 -2 -15 0 5 17 29 23 35 24 23 2z m1682
-88 l6 -60 -16 40 c-8 22 -12 51 -9 64 8 33 12 25 19 -44z m-1927 -87 c-3 -8
-6 -5 -6 6 -1 11 2 17 5 13 3 -3 4 -12 1 -19z m1925 -26 c1 -17 5 -29 10 -26
23 14 -7 -110 -43 -175 -48 -87 -46 -84 -51 -64 -3 10 8 46 24 81 22 47 31 84
35 148 4 51 10 81 15 76 5 -5 10 -23 10 -40z m95 6 c-3 -8 -6 -5 -6 6 -1 11 2
17 5 13 3 -3 4 -12 1 -19z m-827 -62 c187 -94 245 -138 286 -218 26 -51 32
-135 14 -182 -8 -22 -16 -26 -52 -27 l-43 -1 29 -12 c27 -12 28 -14 11 -24
-16 -8 -27 -1 -69 42 -28 28 -80 75 -115 105 -72 62 -121 124 -121 155 0 17 2
18 9 6 6 -8 8 -17 5 -21 -2 -4 4 -13 13 -20 15 -12 16 -12 8 1 -11 18 -17 37
-19 68 -1 26 -9 28 -29 7 -13 -12 -18 -8 -37 38 -23 51 -39 147 -26 147 4 0
65 -29 136 -64z m947 17 c-3 -10 -5 -4 -5 12 0 17 2 24 5 18 2 -7 2 -21 0 -30z
m-82 -120 l-16 -28 5 30 c3 17 8 53 13 80 l8 50 3 -52 c2 -34 -2 -62 -13 -80z
m-2169 75 c-3 -13 -5 -32 -6 -43 -1 -12 -5 -6 -10 15 -9 36 -6 50 11 50 5 0 7
-10 5 -22z m1983 -24 c-14 -54 -40 -114 -51 -114 -13 0 -9 17 12 52 11 18 20
38 20 45 0 18 20 66 25 61 2 -2 0 -22 -6 -44z m-2004 -101 c-10 -58 -35 -34
-35 33 0 20 5 45 12 57 11 21 12 20 20 -18 5 -22 6 -55 3 -72z m639 -31 c-16
-42 -18 -44 -26 -23 -9 27 -1 66 21 101 l16 24 3 -28 c2 -16 -4 -49 -14 -74z
m-681 18 c3 -11 1 -18 -4 -14 -5 3 -9 12 -9 20 0 20 7 17 13 -6z m2231 -132
c-10 -12 -13 -18 -6 -14 10 6 10 1 -2 -22 -14 -28 -41 -47 -59 -43 -5 1 -25
-11 -45 -27 -20 -16 -63 -41 -95 -57 -50 -24 -65 -27 -115 -21 -31 3 -86 6
-120 5 -93 0 -68 17 35 25 49 4 104 9 123 11 29 4 25 1 -20 -15 l-55 -20 45 6
c25 3 74 21 108 40 35 19 68 34 74 34 11 0 78 69 78 81 0 9 63 49 69 43 2 -2
-4 -14 -15 -26z m-149 -37 c-3 -6 -14 -11 -23 -11 -13 0 -13 2 4 14 21 15 30
14 19 -3z m264 -19 c-28 -22 -83 -42 -112 -42 -35 0 -6 19 59 40 76 24 82 24
53 2z m-280 -110 c-22 -17 -69 -35 -69 -26 0 5 73 43 84 44 5 0 -2 -8 -15 -18z
m141 1 c-1 -18 -47 -82 -55 -75 -4 4 -3 -1 2 -12 13 -24 -13 -52 -69 -72 -51
-18 -118 -19 -118 -1 0 18 13 33 35 41 16 6 17 9 5 16 -11 7 -8 11 13 21 15 7
27 15 27 19 0 9 96 57 125 63 33 7 35 7 35 0z m-259 -645 c-2 -69 -27 -145
-54 -163 -38 -24 -117 -37 -149 -24 -30 12 -33 19 -43 92 l-6 48 63 28 c35 15
84 34 110 41 26 7 53 19 59 26 18 21 22 10 20 -48z m-261 -87 c17 -33 12 -48
-36 -93 -25 -24 -49 -44 -52 -46 -4 -1 -16 27 -27 62 l-21 65 38 6 c21 4 40
11 44 16 9 16 43 10 54 -10z m-1513 -87 c-3 -3 -12 -4 -19 -1 -8 3 -5 6 6 6
11 1 17 -2 13 -5z m2141 -283 c3 -9 -2 -11 -17 -6 -30 9 -27 -18 4 -39 30 -20
32 -51 5 -66 -23 -12 -64 -4 -54 11 3 5 14 7 24 4 30 -9 34 14 6 36 -27 22
-35 64 -13 72 19 9 40 3 45 -12z m72 9 c0 -5 -4 -10 -10 -10 -5 0 -10 5 -10
10 0 6 5 10 10 10 6 0 10 -4 10 -10z m1073 -9 c20 22 27 23 50 7 18 -14 25
-60 13 -94 -7 -22 -31 -34 -53 -27 -21 7 -15 20 9 19 15 -1 23 6 25 19 1 11 0
14 -3 8 -4 -9 -11 -9 -30 3 -25 17 -28 13 -27 -33 1 -7 -2 -11 -6 -9 -4 3 -13
1 -21 -4 -34 -21 -71 40 -55 90 10 32 46 43 66 20 15 -18 16 -18 32 1z m181
13 c24 -9 19 -38 -10 -73 l-26 -31 26 0 c14 0 26 -4 26 -10 0 -5 -16 -10 -35
-10 -43 0 -45 16 -9 59 27 33 24 56 -7 46 -21 -7 -27 10 -6 18 18 8 23 8 41 1z
m111 -34 c10 -30 -4 -79 -26 -90 -26 -14 -59 20 -59 60 0 40 33 74 60 60 10
-5 22 -19 25 -30z m163 27 c11 -13 16 -46 14 -83 -2 -22 -38 -44 -59 -37 -22
8 -14 23 9 20 14 -1 23 4 26 15 2 12 -2 15 -17 11 -13 -3 -23 2 -31 16 -14 27
-5 58 18 64 28 8 29 7 40 -6z m-1093 -7 c-3 -5 -13 -10 -21 -10 -10 0 -14 -13
-14 -50 0 -27 -4 -50 -10 -50 -5 0 -10 23 -10 50 0 38 -4 50 -15 50 -8 0 -15
5 -15 10 0 6 21 10 46 10 27 0 43 -4 39 -10z m299 -46 c18 -56 15 -77 -6 -56
-16 16 -45 15 -51 0 -2 -7 -7 -11 -10 -8 -10 9 26 120 38 120 6 0 19 -25 29
-56z m696 0 c0 -31 4 -53 9 -49 5 3 12 1 16 -5 4 -6 -10 -10 -35 -10 -25 0
-39 4 -35 10 4 6 11 8 16 5 5 -4 9 14 9 39 0 36 -3 44 -15 40 -8 -4 -15 -2
-15 4 0 6 6 13 13 15 32 13 37 7 37 -49z m-510 12 c0 -19 -4 -23 -20 -19 -17
5 -20 0 -20 -26 0 -19 -5 -31 -13 -31 -9 0 -13 15 -13 44 -1 43 1 45 30 49 17
2 32 5 34 5 1 1 2 -9 2 -22z m-920 -19 c0 -18 5 -38 12 -45 9 -9 7 -12 -10
-12 -18 0 -22 6 -22 35 0 24 -5 35 -15 35 -8 0 -15 5 -15 10 0 6 11 10 25 10
22 0 25 -4 25 -33z m114 17 c10 -25 7 -74 -4 -74 -5 0 -10 16 -10 36 0 44 -21
42 -35 -4 -13 -44 -21 -40 -24 13 l-2 45 34 0 c23 0 37 -6 41 -16z m96 6 c0
-5 -12 -10 -26 -10 -22 0 -25 -4 -22 -27 2 -22 8 -28 26 -26 12 2 22 -2 22 -7
0 -17 -57 -11 -64 6 -9 25 -7 49 6 62 15 15 58 16 58 2z m84 -6 c11 -27 7 -34
-20 -34 -16 0 -24 -5 -21 -12 2 -7 14 -12 26 -11 11 2 21 -2 21 -8 0 -6 -14
-9 -31 -7 -36 3 -51 30 -38 66 10 26 54 31 63 6z m166 -20 c0 -28 3 -35 18
-32 11 2 18 14 20 36 5 48 22 39 22 -11 0 -43 -1 -44 -32 -45 -18 0 -36 5 -40
11 -11 18 -10 77 2 77 6 0 10 -16 10 -36z m144 20 c11 -28 6 -34 -25 -34 -27
0 -30 -2 -19 -15 7 -9 21 -13 31 -10 11 4 19 2 19 -4 0 -6 -13 -11 -30 -11
-38 0 -55 28 -38 64 13 29 52 36 62 10z m224 -26 c-2 -36 -7 -44 -25 -46 -15
-2 -23 -10 -23 -23 0 -10 -4 -19 -9 -19 -5 0 -11 29 -13 65 l-3 65 38 0 38 0
-3 -42z"/>
<path d="M3160 3077 c-58 -28 -164 -134 -222 -222 -26 -38 -45 -71 -43 -73 2
-2 13 2 25 8 29 15 46 0 54 -49 7 -43 25 -63 59 -63 61 0 277 292 277 374 0
49 -75 61 -150 25z"/>
<path d="M1895 2490 c3 -5 8 -10 11 -10 2 0 4 5 4 10 0 6 -5 10 -11 10 -5 0
-7 -4 -4 -10z"/>
<path d="M2711 2329 c-13 -11 -22 -22 -19 -24 2 -3 15 6 28 20 28 30 24 32 -9
4z"/>
<path d="M2523 2073 c9 -2 23 -2 30 0 6 3 -1 5 -18 5 -16 0 -22 -2 -12 -5z"/>
<path d="M3911 1086 c-6 -16 -10 -31 -7 -33 7 -8 28 37 23 50 -3 7 -10 -1 -16
-17z"/>
<path d="M3993 1094 c-8 -21 13 -42 28 -27 13 13 5 43 -11 43 -6 0 -13 -7 -17
-16z"/>
<path d="M3926 1046 c-10 -15 -12 -27 -6 -31 6 -3 15 6 20 21 14 36 7 41 -14
10z"/>
<path d="M4220 1084 c-14 -36 -7 -41 14 -10 10 15 12 27 6 31 -6 3 -15 -6 -20
-21z"/>
<path d="M4241 1051 c-8 -17 -11 -34 -8 -38 8 -7 29 46 24 60 -2 6 -9 -4 -16
-22z"/>
<path d="M4396 1093 c-8 -21 10 -41 24 -27 11 11 3 44 -10 44 -4 0 -11 -8 -14
-17z"/>
<path d="M3607 1060 c-3 -11 -1 -20 4 -20 5 0 9 9 9 20 0 11 -2 20 -4 20 -2 0
-6 -9 -9 -20z"/>
<path d="M3168 1063 c7 -3 16 -2 19 1 4 3 -2 6 -13 5 -11 0 -14 -3 -6 -6z"/>
<path d="M3478 1063 c7 -3 16 -2 19 1 4 3 -2 6 -13 5 -11 0 -14 -3 -6 -6z"/>
<path d="M3703 1063 c-15 -6 -17 -43 -3 -43 12 0 24 25 18 38 -1 5 -9 7 -15 5z"/>
<path d="M2100 3999 c-57 -39 -121 -123 -167 -217 -45 -94 -63 -161 -63 -238
0 -58 2 -64 35 -93 20 -17 42 -31 49 -31 15 0 142 -53 243 -101 37 -17 88 -55
129 -94 l67 -65 -7 107 c-6 102 -12 147 -50 368 -26 150 -65 268 -112 343 -40
62 -58 65 -124 21z"/>
<path d="M1981 3169 c-34 -68 -39 -123 -17 -174 12 -28 13 -24 13 51 0 60 6
92 22 129 31 71 18 66 -18 -6z"/>
<path d="M1091 2971 c-27 -21 -23 -51 6 -51 32 0 45 15 37 43 -7 32 -11 32
-43 8z"/>
<path d="M589 2953 c-13 -16 -12 -17 4 -4 9 7 17 15 17 17 0 8 -8 3 -21 -13z"/>
<path d="M1980 2955 c0 -5 5 -17 10 -25 5 -8 10 -10 10 -5 0 6 -5 17 -10 25
-5 8 -10 11 -10 5z"/>
<path d="M2491 2917 c-24 -12 -71 -48 -103 -81 -92 -92 -112 -164 -60 -216 86
-86 215 -8 198 119 -18 128 -18 139 -2 170 9 17 15 31 14 31 -2 0 -23 -10 -47
-23z"/>
<path d="M1577 2726 c-19 -129 1 -278 46 -338 32 -43 71 -63 177 -88 52 -12
103 -26 113 -31 42 -23 10 3 -65 52 -162 105 -223 198 -253 384 l-11 70 -7
-49z"/>
<path d="M680 2681 c0 -6 4 -13 10 -16 6 -3 7 1 4 9 -7 18 -14 21 -14 7z"/>
<path d="M610 2600 c0 -16 2 -30 4 -30 2 0 6 14 8 30 3 17 1 30 -4 30 -4 0 -8
-13 -8 -30z"/>
<path d="M1069 2607 c5 -5 21 -7 37 -5 27 3 26 4 -8 9 -22 3 -34 1 -29 -4z"/>
<path d="M460 2425 c0 -5 5 -17 10 -25 5 -8 10 -10 10 -5 0 6 -5 17 -10 25 -5
8 -10 11 -10 5z"/>
<path d="M440 2336 c0 -11 30 -66 36 -66 2 0 -3 15 -12 33 -19 36 -24 44 -24
33z"/>
<path d="M1280 2323 c0 -16 32 -39 100 -71 55 -25 85 -32 195 -41 148 -13 216
-30 269 -66 21 -14 36 -20 34 -13 -3 7 -30 28 -62 47 -54 32 -64 34 -210 46
-138 11 -159 15 -217 43 -35 17 -74 39 -86 48 -13 9 -23 12 -23 7z"/>
<path d="M1082 2272 l3 -50 27 31 c34 39 32 61 -5 65 -27 3 -28 3 -25 -46z"/>
<path d="M2278 2153 c7 -3 16 -2 19 1 4 3 -2 6 -13 5 -11 0 -14 -3 -6 -6z"/>
<path d="M1340 2138 c22 -22 98 -62 148 -76 23 -7 86 -12 140 -12 53 1 112 -3
131 -9 53 -16 48 -5 -5 13 -28 9 -80 16 -128 16 -90 0 -200 26 -263 61 -22 13
-32 16 -23 7z"/>
<path d="M2308 2133 c7 -3 16 -2 19 1 4 3 -2 6 -13 5 -11 0 -14 -3 -6 -6z"/>
<path d="M463 2123 c9 -2 23 -2 30 0 6 3 -1 5 -18 5 -16 0 -22 -2 -12 -5z"/>
<path d="M2428 2113 c6 -2 18 -2 25 0 6 3 1 5 -13 5 -14 0 -19 -2 -12 -5z"/>
</g>
</svg>
